<svg viewBox="24.445945945945937 27.25 359.89864864864865 490.5000000000001" fill="none" xmlns="http://www.w3.org/2000/svg" xmlns:xlink="http://www.w3.org/1999/xlink" overflow="visible" width="359.89864864864865px" height="490.5000000000001px"><g id="Master/Composition/Graphs"><g id="Chart"><path id="Value" fill-rule="evenodd" clip-rule="evenodd" d="M88.6606 88.7131C86.1848 91.3311 82.6774 92.975 78.7765 92.975C71.281 92.975 65.2047 86.942 65.2047 79.5C65.2047 72.058 71.281 66.025 78.7765 66.025V41C57.4533 41 40 58.3288 40 79.5C40 100.671 57.4533 118 78.7765 118C89.9771 118 100.1 113.295 107 105.811L88.6606 88.7131Z" fill="#F2F2F2"/><path id="Value_2" fill-rule="evenodd" clip-rule="evenodd" d="M78 41V66.35C85.5387 66.35 91.65 72.4613 91.65 80H117C117 58.5539 99.4461 41 78 41Z" fill="#42A5FF"/><path id="Value_3" fill-rule="evenodd" clip-rule="evenodd" d="M91.2919 79C91.2919 83.4007 89.2194 87.3124 86 89.8381L101.838 110C111.057 102.782 117 91.5928 117 79H91.2919Z" fill="#C5CFD6"/></g><g id="Circles"><circle id="Oval 2 Copy 17" cx="359" cy="132" r="20" fill="#C1DEE2"/><circle id="Oval 2 Copy 6" cx="88.5" cy="346.5" r="13.5" fill="#89C5CC"/><circle id="Oval 2 Copy 14" cx="164.5" cy="131.5" r="13.5" fill="#56919C"/><circle id="Oval 2 Copy 10" cx="137.5" cy="326.5" r="13.5" fill="#56919C"/><circle id="Oval 2 Copy 11" cx="186.5" cy="230.5" r="18.5" fill="#C1DEE2"/><circle id="Oval 2 Copy 16" cx="325" cy="148" r="27" fill="#89C5CC"/><circle id="Oval 2 Copy 7" cx="61.5" cy="299.5" r="13.5" fill="#C1DEE2"/><circle id="Oval 2 Copy 7_2" cx="33.5" cy="359.5" r="9.5" fill="#C1DEE2"/><circle id="Oval 2 Copy 9" cx="138" cy="275" r="10" fill="#C1DEE2"/><circle id="Oval 2 Copy 12" cx="228" cy="246" r="17" fill="#C1DEE2"/><circle id="Oval 2 Copy 13" cx="235" cy="175" r="17" fill="#C1DEE2"/><circle id="Oval 2 Copy 8" cx="102" cy="248" r="17" fill="#89C5CC"/><circle id="Oval 2 Copy 15" cx="286" cy="203" r="20" fill="#89C5CC"/></g><g id="Head/Front" transform="translate(101.859 127.148) scale(1.1015625 1.1043955729557917)"><g id="Head/Front/Short 2"><g id="Head"><path id="SKIN" fill-rule="evenodd" clip-rule="evenodd" d="M73.9354 75.2443C80.411 79.1475 86.7736 81.0333 89.7603 80.2635C97.2496 78.333 97.9382 50.9351 92.1433 40.1339C86.3485 29.3328 56.5583 24.625 55.0568 46.0255C54.5356 53.4529 57.6544 60.0814 62.2623 65.4901L54 104H78L73.9354 75.2443Z" fill="#57331f"/></g><path id="Hair" fill-rule="evenodd" clip-rule="evenodd" d="M60.4181 70.3075C57.4059 56.9065 48.8245 47.7714 50.1351 41.7817C51.4457 35.792 57.1213 34.3321 57.1213 34.3321C57.1213 34.3321 60.0567 22.4572 76.0556 24.2304C92.0546 26.0036 101.819 32.6478 97.6025 47.2679C93.7261 47.2679 89.0465 45.866 82.5755 48.2679C79.4957 49.411 78.17 55.358 78.17 55.358H75.2458C75.2458 55.358 70.9887 48.3006 66.8508 50.1712C62.7128 52.0418 64.9695 59.2586 64.9695 59.2586L63.5291 70.3075H60.4181Z" fill="#181658"/></g></g><g id="Lower Body/Sitting" transform="translate(11.5312 333.67) scale(1.1015625 1.1043956549097804)"><g id="Lower Body/Sitting/Skinny Jeans 1"><g id="Seat"><g id="Seat_2"><path id="Seat Stuff" fill-rule="evenodd" clip-rule="evenodd" d="M92.6226 42H169.877L180 166H65L92.6226 42Z" fill="#C5CFD6"/><path id="Seat Stuff_2" fill-rule="evenodd" clip-rule="evenodd" d="M92.6226 42H116.383L130.604 166H65L92.6226 42Z" fill="black" fill-opacity="0.1"/></g></g><path id="LegBack" fill-rule="evenodd" clip-rule="evenodd" d="M212.323 66.5665C203.642 84.9781 190.077 129.672 190.077 129.672L201.593 134.934C201.593 134.934 230.814 87.9524 248.672 55.8364C247.84 63.0664 246.993 71.2061 246.208 79.7626C244.347 100.033 246.207 143.827 247.208 156.477C247.837 164.428 258.64 162.762 259.648 156.457C259.819 155.389 260.515 151.639 261.554 146.045C266.647 118.613 279.977 46.8178 280 29.2384C280.01 22.1647 266.19 15.8101 257.953 20.7561C252.296 14.7192 241.588 11.2397 235.436 21.212C231.525 27.5517 222.233 45.5497 212.323 66.5665Z" fill="#57331f"/><path id="LegLower" fill-rule="evenodd" clip-rule="evenodd" d="M190.9 113.125L230.427 19.4873C239.897 4.25483 266.446 22.587 263.217 31.4217C255.885 51.4793 218.6 116.414 216.415 122.39L190.9 113.125Z" fill="#191847"/><path id="shoe" fill-rule="evenodd" clip-rule="evenodd" d="M191.664 124.185C190.971 123.241 189.63 123.017 188.734 123.771C187.099 125.146 184.748 127.264 183.899 128.734C182.547 131.076 180.733 136.021 180.733 136.021C183.45 137.59 229.578 164.222 229.578 164.222C229.578 164.222 235.116 159.027 231.304 156.157C227.491 153.286 225.012 151.315 225.012 151.315L208.152 128.087C207.821 127.631 207.179 127.538 206.733 127.882L203.23 130.579C203.23 130.579 198.409 130.159 196.035 128.788C194.589 127.953 192.824 125.767 191.664 124.185Z" fill="#E4E4E4"/><path id="shoe_2" fill-rule="evenodd" clip-rule="evenodd" d="M247.45 150.284C246.378 149.813 245.104 150.29 244.705 151.391C243.977 153.398 243 156.409 243 158.106C243 160.811 243.901 166 243.901 166C247.039 166 300.303 166 300.303 166C300.303 166 302.502 158.732 297.765 158.152C293.028 157.573 289.895 157.106 289.895 157.106L263.68 145.419C263.165 145.189 262.563 145.43 262.348 145.951L260.663 150.039C260.663 150.039 256.278 152.085 253.537 152.085C251.868 152.085 249.246 151.074 247.45 150.284Z" fill="#E4E4E4"/><path id="Leg and Butt" fill-rule="evenodd" clip-rule="evenodd" d="M282.77 36.433C282.77 63 270.154 124.97 270.146 130.82L243 130.841C243 130.841 248.96 47.8977 247.227 47.0042C245.493 46.1107 176.176 53.925 155.386 53.925C125.408 53.925 113.006 35.0204 112 0H171.386C183.478 1.29387 246.549 14.0153 269.972 18.3884C280 20.2606 282.77 29.1145 282.77 36.433Z" fill="#393f82"/></g></g><g id="Upper Body" transform="translate(35.7656 217.709) scale(1.1015625 1.1043955757018717)"><g id="Upper Body/Trench Coat"><path id="SKIN" fill-rule="evenodd" clip-rule="evenodd" d="M24.0271 138.201C27.9454 132.855 51.5391 75.3752 51.5391 75.3752L69.1504 78.564C69.1504 78.564 38.4903 139.405 36.3073 142.902C33.4714 147.445 35.5707 155.142 36.9942 160.361C37.2144 161.169 37.4184 161.917 37.5855 162.585C34.1826 163.44 32.9683 161.467 31.6882 159.387C30.2422 157.037 28.7122 154.551 23.8497 155.85C21.9711 156.351 20.1598 157.017 18.3901 157.667C12.2774 159.912 6.66196 161.974 0.486925 156.477C-0.492045 155.606 -1.24581 152.841 2.01427 151.36C10.1363 147.669 22.1115 140.815 24.0271 138.201ZM227.788 108.555L195.89 85.1316L188.838 102.563L220.426 115.661C229.359 126.155 234.355 130.53 235.412 128.785C236.304 127.314 235.607 125.937 234.965 124.669C234.465 123.681 233.998 122.758 234.342 121.909C235.126 119.97 241.127 120.174 246.814 120.611C252.5 121.048 250.843 118.518 249.472 117.269C243.667 113.794 236.439 110.89 227.788 108.555Z" fill="#57331f"/><path id="Back Arm" fill-rule="evenodd" clip-rule="evenodd" d="M138.264 2.0415L127.569 6.42763C127.681 9.22099 127.67 13.1947 127.658 17.7472C127.618 32.036 127.562 52.0268 131.254 59.1216C144.043 83.7012 170.303 96.5048 199.551 110.765C203.471 112.676 207.445 114.614 211.448 116.61L219.495 100.182C218.563 99.521 217.639 98.8566 216.723 98.1885C217.987 97.7455 219.042 96.7451 219.503 95.3772C220.296 93.022 219.03 90.4694 216.675 89.6759C211.889 88.0632 207.424 87.3833 203.32 87.678C173.349 62.4233 153.173 32.8583 138.264 2.0415Z" fill="#e87613"/><path id="Shirt" fill-rule="evenodd" clip-rule="evenodd" d="M90 113.91C90 113.91 137.157 119.09 164.236 113.91C166.473 113.482 166.375 103.84 165.337 101.207C149.185 60.2019 138.56 30.184 138.56 1.70264C134.115 4.02478 123 2.39864 123 2.39864C103.086 31.7496 93.9325 65.4265 90 113.91Z" fill="#191847"/><path id="Coat Front" fill-rule="evenodd" clip-rule="evenodd" d="M30.1925 114.406C57.9812 34.9799 114.976 0 114.976 0H116.532H120.377H126.348C125.06 17.0357 131.113 41.826 138.134 70.5842C149.364 116.577 163.071 172.719 153.191 223.518C141.042 226.231 126.766 224.379 111.312 222.374C89.0082 219.479 64.2489 216.267 39.8828 226C40.8222 205.65 52.7036 183.124 64.5315 160.699C72.0289 146.484 79.5048 132.31 84.1585 118.758C83.0909 117.753 82.5343 116.247 82.8078 114.696L83.3288 111.741C83.6818 109.739 85.3078 108.281 87.2277 108.053C87.5633 106.553 87.8527 105.063 88.0917 103.583C89.3128 96.0246 88.5333 88.5548 87.7625 81.169L87.7624 81.1688C87.3392 77.1137 86.9187 73.084 86.8334 69.0787C73.4403 81.0101 57.228 101.813 43.5479 137.871L24.6611 132.313C25.3833 129.63 26.1401 126.991 26.9288 124.396C24.7427 123.191 22.1654 117.47 24.0066 116.516C25.952 115.508 28.0161 114.807 30.1925 114.406Z" fill="#ffa434"/><path id="Shade Lapel" fill-rule="evenodd" clip-rule="evenodd" d="M119.106 1L113.947 16.8654L124.336 28.759L114.947 38.1055L137.662 77L109.884 38.1832L119.106 28.759L109.884 18.2485L119.106 1Z" fill="black" fill-opacity="0.1"/><path id="Buttons" fill-rule="evenodd" clip-rule="evenodd" d="M135 88C135 90.2091 133.209 92 131 92C128.791 92 127 90.2091 127 88C127 85.7909 128.791 84 131 84C133.209 84 135 85.7909 135 88ZM140 111C140 113.209 138.209 115 136 115C133.791 115 132 113.209 132 111C132 108.791 133.791 107 136 107C138.209 107 140 108.791 140 111ZM137 138C139.209 138 141 136.209 141 134C141 131.791 139.209 130 137 130C134.791 130 133 131.791 133 134C133 136.209 134.791 138 137 138Z" fill="black" fill-opacity="0.4"/></g></g><g id="Bars"><rect id="Rectangle" x="260" y="33" width="110" height="16" rx="4" fill="#393f82"/><rect id="Rectangle" x="260" y="57" width="70" height="16" rx="4" fill="#C1DEE2"/><rect id="Rectangle_2" x="260" y="81" width="86" height="16" rx="4" fill="#C1DEE2"/></g><g id="Graph"><rect id="Value_4" x="24" y="458" width="6" height="25" rx="3" fill="#42A5FF"/><rect id="Value_5" x="38" y="442" width="6" height="41" rx="3" fill="#42A5FF"/><rect id="Value_6" x="52" y="434" width="6" height="49" rx="3" fill="#42A5FF"/><rect id="Value_7" x="66" y="442" width="6" height="41" rx="3" fill="#42A5FF"/><rect id="Value" x="80" y="426" width="6" height="57" rx="3" fill="#393f82"/></g><g id="Pie Chart"><path id="Value_8" fill-rule="evenodd" clip-rule="evenodd" d="M324 465.516C324 449.285 337.053 436 353 436V465.516L333.181 487C327.544 481.748 324 474.042 324 465.516Z" fill="#F2F2F2"/><path id="Value_9" fill-rule="evenodd" clip-rule="evenodd" d="M351.892 465H381C381 472.57 377.931 479.664 373.078 484.819C367.741 490.456 360.141 494 351.892 494C344.294 494 337.338 490.942 332 486.108L351.892 465Z" fill="#AFB9C5"/><path id="Value_10" fill-rule="evenodd" clip-rule="evenodd" d="M382 465C382 449.053 368.947 436 353 436V465H382ZM338.5 436L350.1 462.1L324 450.5C326.581 443.734 332.377 438.581 338.5 436Z" fill="#8991DC"/></g><g id="Circles_2"><circle id="Circle" cx="136.5" cy="350.5" r="14.5" fill="#89C5CC"/><circle id="Circle_2" cx="179" cy="267" r="7" fill="#C1DEE2"/><circle id="Circle_3" cx="267" cy="261" r="15" fill="#89C5CC"/></g></g></svg>