<svg viewBox="31.236486486486513 0 353.10810810810807 544.9999999999999" fill="none" xmlns="http://www.w3.org/2000/svg" xmlns:xlink="http://www.w3.org/1999/xlink" overflow="visible" width="353.10810810810807px" height="544.9999999999999px"><g id="Master/Composition/Phone"><g id="Background" opacity="0.2"><circle id="Oval" cx="200.851" cy="197.267" r="154.851" fill="#FFA434"/><circle id="Oval" cx="295.109" cy="517.069" r="27.604" fill="#89c5cc"/><path id="Polygon" fill-rule="evenodd" clip-rule="evenodd" d="M175.277 -0.0197754L208.277 32.9802L175.277 65.9802L142.277 32.9802L175.277 -0.0197754Z" fill="#89c5cc"/><path id="Polygon" fill-rule="evenodd" clip-rule="evenodd" d="M83.7029 464.554L99.8613 480.713L83.7029 496.871L67.5444 480.713L83.7029 464.554Z" fill="#FFA434"/><path id="Polygon_2" fill-rule="evenodd" clip-rule="evenodd" d="M317.327 42.4159L325.406 50.4951L317.327 58.5743L309.248 50.4951L317.327 42.4159Z" fill="#2026A2"/></g><g id="Phone"><path id="base" fill-rule="evenodd" clip-rule="evenodd" d="M55.515 79.1982L175.351 75.0134C188.896 74.5404 200.26 85.1375 200.733 98.6826L211.144 396.826C211.617 410.371 201.02 421.735 187.475 422.208L67.6393 426.392C54.0941 426.865 42.7302 416.268 42.2572 402.723L31.8458 104.58C31.3728 91.0351 41.9699 79.6712 55.515 79.1982Z" fill="#F2F2F2"/><path id="Screen" fill-rule="evenodd" clip-rule="evenodd" d="M74.4058 88.678C74.5813 93.7053 78.7281 97.6576 83.726 97.6253L83.9946 97.6197L148.201 95.3776C153.228 95.202 157.181 91.0552 157.148 86.0573L157.143 85.7888L157.048 83.063L175.895 82.4049C184.925 82.0895 192.501 89.1542 192.816 98.1843L203.265 397.417C203.581 406.447 196.516 414.023 187.486 414.338L66.5909 418.56C57.5608 418.875 49.9849 411.81 49.6695 402.78L39.2201 103.548C38.9048 94.5179 45.9695 86.942 54.9996 86.6266L74.3106 85.9523L74.4058 88.678Z" fill="#240E6A"/></g><g id="Character"><g id="Head/Front" transform="matrix(-0.891007 -0.45399 -0.45399 0.891007 380.113 241.778) scale(0.6732673084034639 0.6732672911423904)"><g id="Head/Front/Caesar"><g id="Head"><path id="SKIN" fill-rule="evenodd" clip-rule="evenodd" d="M73.9354 75.2443C80.411 79.1475 86.7736 81.0333 89.7603 80.2635C97.2496 78.333 97.9382 50.9351 92.1433 40.1339C86.3485 29.3328 56.5583 24.625 55.0568 46.0255C54.5356 53.4529 57.6544 60.0814 62.2623 65.4901L54 104H78L73.9354 75.2443Z" fill="#915b3c"/></g><path id="Combined Shape" fill-rule="evenodd" clip-rule="evenodd" d="M63 41C76.8493 41.0992 86.4854 40.5156 92 39C91.7486 34.3062 86.8691 29 74 29C59.682 29 52 37.3455 52 47C52 55.8205 57.6781 66.5628 62 67C63.1187 66.7553 64.0738 65.4091 65.0235 63.5535C63.245 62.7108 62 60.7653 62 58.5C62 55.4624 64.2386 53 67 53C68.0028 53 68.9367 53.3247 69.7194 53.8838C71.5356 50.9533 73.812 48.762 77 49L75 43L63 42V41Z" fill="#b58143"/></g></g><g id="Lower Body/Standing" transform="matrix(-1 0 0 1 393.287 337.346) scale(0.6732673136393229 0.6732673166187239)"><g id="Lower Body/Standing/Baggy Pants"><path id="SKIN" fill-rule="evenodd" clip-rule="evenodd" d="M134 0L183.082 124.227L216.001 229.25H229L176.674 0L134 0Z" fill="#915b3c"/><path id="SKIN" fill-rule="evenodd" clip-rule="evenodd" d="M124.117 0C123.594 43.6542 115.972 102.427 114.754 105.149C113.536 107.87 30.6758 174.358 30.6758 174.358L39.629 183.939C39.629 183.939 137.397 126.934 141.921 119.331C146.445 111.728 161.174 41.7631 173 0H124.117Z" fill="#915b3c"/><g id="Left [Shoe]"><path id="shoe" fill-rule="evenodd" clip-rule="evenodd" d="M32.116 172.564C31.7884 171.44 30.604 170.771 29.5042 171.173C27.4981 171.906 24.5641 173.092 23.2642 174.183C21.1921 175.922 17.7961 179.948 17.7961 179.948C19.8131 182.352 54.0505 223.154 54.0505 223.154C54.0505 223.154 61.0315 220.166 58.4307 216.165C55.8299 212.164 54.1738 209.464 54.1738 209.464L46.2757 181.87C46.1206 181.328 45.549 181.022 45.012 181.192L40.7975 182.529C40.7975 182.529 36.4116 180.485 34.6494 178.384C33.5766 177.106 32.665 174.448 32.116 172.564Z" fill="#E4E4E4"/></g><g id="Right {Shoe]"><path id="shoe_2" fill-rule="evenodd" clip-rule="evenodd" d="M213.45 223.284C212.378 222.813 211.104 223.29 210.705 224.391C209.977 226.398 209 229.409 209 231.106C209 233.811 209.901 239 209.901 239C213.039 239 266.303 239 266.303 239C266.303 239 268.502 231.732 263.765 231.152C259.028 230.573 255.895 230.106 255.895 230.106L229.68 218.419C229.165 218.189 228.563 218.43 228.348 218.951L226.663 223.039C226.663 223.039 222.278 225.085 219.537 225.085C217.868 225.085 215.246 224.074 213.45 223.284Z" fill="#E4E4E4"/></g><path id="Pant" fill-rule="evenodd" clip-rule="evenodd" d="M167 218.433L228.804 211.725L179 0H127.644L167 218.433Z" fill="#56919c"/><path id="Pant" fill-rule="evenodd" clip-rule="evenodd" d="M43.46 158.9L84 206.886C84 206.886 148.05 136.932 158.683 115.596C169.315 94.26 177.799 0 177.799 0H115.478C115.478 0 110.844 82.9258 109.231 86.7848C107.617 90.6437 43.46 158.9 43.46 158.9Z" fill="#89c5cc"/></g></g><g id="Upper Body" transform="matrix(-0.970296 -0.241922 -0.241922 0.970296 397.683 292.194) scale(0.6732673048973083 0.6732673441025026)"><g id="Upper Body/Pointing Up"><path id="SKIN" fill-rule="evenodd" clip-rule="evenodd" d="M229.36 -9.03758L191.456 2.34084L201.134 18.4626L230.605 1.11849C244.362 0.299262 250.862 -1.05756 250.105 -2.95197C249.466 -4.54928 247.947 -4.82144 246.548 -5.07212C245.458 -5.2674 244.441 -5.44965 243.969 -6.23517C242.892 -8.02905 246.667 -12.6987 250.438 -16.977C254.21 -21.2552 251.192 -21.4545 249.369 -21.1114C243.101 -18.5666 236.431 -14.542 229.36 -9.03758ZM220.005 92.5917L188.107 69.1681L181.055 86.5991L212.643 99.6977C221.577 110.192 226.572 114.566 227.629 112.822C228.521 111.351 227.824 109.974 227.182 108.705C226.682 107.717 226.215 106.795 226.559 105.946C227.344 104.006 233.345 104.21 239.031 104.648C244.717 105.085 243.06 102.555 241.689 101.305C235.885 97.8307 228.657 94.9262 220.005 92.5917Z" fill="#915b3c"/><path id="Coat Back" fill-rule="evenodd" clip-rule="evenodd" d="M138.561 6.08676C155.931 38.4763 181.05 63.3052 217.466 89.1158L203.677 104.663C163.018 89.5528 141.559 80.4362 131.021 49.8347C128.376 42.1544 126.528 17.6708 124.942 4.7888L138.561 6.08676Z" fill="#c21b15"/><path id="Shirt" fill-rule="evenodd" clip-rule="evenodd" d="M90 114H167C167 114 140.837 34.2081 140.27 4.47156C140.251 3.4609 138.384 1.67996 137.559 1.91319C128.5 4.47156 118.172 0 118.172 0C99.9175 29.3584 93.6048 65.5046 90 114Z" fill="#F2F2F2"/><path id="Coat Front" fill-rule="evenodd" clip-rule="evenodd" d="M137.486 44.7908C149.512 96.3771 148.958 138.606 122.407 138.606H81.3511C74.8304 94.784 91.9681 34.0236 107.856 3.37659C108.463 2.20628 109.754 0 112.797 0H124.727C124.732 0.0157986 124.737 0.0315971 124.743 0.0473957C128.332 0.0767918 132.286 0.208035 136.567 0.350165C158.608 1.08188 189.341 2.10213 223.923 -9L228 11.3735C196.787 31.4482 165.181 46.9991 137.486 44.7908Z" fill="#ff4133"/></g></g></g><g id="illustration"><mask id="mask0_215_5344c50ec376-a106-407b-b265-84b0e6856fb7" style="mask-type:alpha" maskUnits="userSpaceOnUse" x="39" y="0" width="340" height="545" fill="#ffffff"><path id="Screen_2" fill-rule="evenodd" clip-rule="evenodd" d="M187.486 414.338L66.5909 418.56C57.5608 418.875 49.9849 411.81 49.6695 402.78L39.2201 103.548C38.9048 94.518 45.9695 86.942 54.9996 86.6266L83.7029 0L379 0V544.673H249.277C249.277 544.673 189.221 414.277 187.486 414.338Z" fill="#ffffff"/></mask><g mask="url(#mask0_215_5344c50ec376-a106-407b-b265-84b0e6856fb7)"><g id="Head/Front" transform="rotate(44 188.044 20.7349) translate(188.044 20.7349) scale(1.1516185087316178 1.150073271531325)"><g id="Head/Front/Chongo"><g id="Head"><path id="SKIN" fill-rule="evenodd" clip-rule="evenodd" d="M73.9354 75.2443C80.411 79.1475 86.7736 81.0333 89.7603 80.2635C97.2496 78.333 97.9382 50.9351 92.1433 40.1339C86.3485 29.3328 56.5583 24.625 55.0568 46.0255C54.5356 53.4529 57.6544 60.0814 62.2623 65.4901L54 104H78L73.9354 75.2443Z" fill="#915b3c"/></g><path id="hair" fill-rule="evenodd" clip-rule="evenodd" d="M82.6634 28.37C79.3839 27.37 74.6233 27.0308 72.6207 27.2603C73.7599 24.5308 74.2119 21.4899 73.8434 18.5291C73.4852 15.6521 72.1997 13.2024 71.0107 10.6354C70.4627 9.45217 69.8416 8.2754 68.9156 7.37038C67.9723 6.44834 66.7782 5.83973 65.5261 5.54937C64.2447 5.25215 62.9049 5.2769 61.6216 5.54663C61.0538 5.66593 60.5444 5.9255 59.9877 6.06979C59.4175 6.21763 59.1409 5.86077 58.7271 5.50213C57.7297 4.63797 56.2676 4.21138 55.0059 4.0587C53.5902 3.88748 52.1213 4.10102 50.7712 4.56639C49.4571 5.01943 48.1947 5.75509 47.2446 6.82681C46.8215 7.30387 46.4375 7.84687 46.188 8.44638C46.0856 8.6924 46.0687 8.83815 45.8232 8.92827C45.5961 9.0117 45.3306 9.01412 45.0962 9.09353C42.8304 9.86095 40.8931 11.6117 39.8383 13.8595C39.2229 15.1709 38.9314 17.4798 39.0112 20.0677C39.0911 22.6555 41.4278 29.4081 43.6133 31.8711C45.5641 34.0695 48.4316 35.5203 51.1989 36.1553C49.3621 38.2548 48.1394 40.8784 47.2352 43.5467C46.2531 46.445 45.6453 49.4566 45.4208 52.5251C45.2076 55.4405 45.1879 58.5235 45.8713 61.3767C46.5107 64.0448 47.878 66.2337 50.1606 67.6223C51.2062 68.2584 52.3312 68.7363 53.4626 69.173C54.5777 69.6034 55.6962 70.0219 56.8642 70.2634C59.0748 70.7203 61.622 70.6418 63.3249 68.8822C63.9386 68.2479 64.6136 67.4508 65.0613 66.6759C65.2223 66.3972 65.3194 66.215 65.1238 65.9426C64.8895 65.6164 64.5105 65.3664 64.2094 65.1112C62.4929 63.6561 61.4303 61.7135 61.1625 59.4049C60.8907 57.0626 61.5199 54.0393 63.7972 53.017C66.6083 51.7552 69.7042 53.2036 72.2027 54.5537C73.2646 50.806 75.4449 47.4315 78.8633 45.7124C82.6451 43.8105 86.9847 43.5879 90.8711 41.9561C91.8838 41.5309 92.9153 41.0482 93.6609 40.1818C93.9725 39.8197 94.338 39.35 94.4624 38.871C94.6259 38.2419 94.2201 37.7145 93.9067 37.2241C92.2449 34.6236 85.9428 29.37 82.6634 28.37Z" fill="#b58143"/></g></g><g id="Lower Body/Standing" transform="rotate(12 -72.7554 194.5) translate(-72.7554 194.5) scale(1.151287129720052 1.1521603891540273)"><g id="Lower Body/Standing/Skinny Jeans"><path id="Leg" fill-rule="evenodd" clip-rule="evenodd" d="M128 0L164.255 127.227L190.707 221H210L181.891 0H128Z" fill="#56919c"/><path id="Leg" fill-rule="evenodd" clip-rule="evenodd" d="M118.304 0C117.466 65.5742 114.606 101.34 113.726 107.298C112.845 113.256 99.5322 151.156 73.7864 221H93.7727C126.549 153.997 144.846 116.096 148.663 107.298C152.479 98.4996 164.259 62.7336 182 0H118.304Z" fill="#89c5cc"/><path id="Shoe" fill-rule="evenodd" clip-rule="evenodd" d="M72 239L73 218L94 218C108.936 228.5 133 235 133 235V239H95L82 237V239H72Z" fill="#191847"/><path id="Shoe_2" fill-rule="evenodd" clip-rule="evenodd" d="M188 239L189 218L210 218C224.936 228.5 249 235 249 235V239H211L198 237V239H188Z" fill="#191847"/></g></g><g id="Upper Body" transform="rotate(33 50.2139 66.051) translate(50.2139 66.051) scale(1.1516185998916626 1.150073209548379)"><g id="Upper Body/Lab Coat"><path id="SKIN" fill-rule="evenodd" clip-rule="evenodd" d="M28.3643 141.284C32.0937 135.804 53.6671 77.5359 53.6671 77.5359L71.3788 80.1081C71.3788 80.1081 42.8608 141.982 40.8011 145.554C38.1255 150.193 40.4921 157.812 42.0969 162.978C42.3452 163.777 42.5752 164.518 42.7655 165.179C39.3945 166.153 38.1121 164.223 36.7601 162.189C35.2331 159.892 33.6173 157.461 28.803 158.928C26.943 159.495 25.1561 160.223 23.4102 160.934C17.3796 163.391 11.8395 165.648 5.47637 160.37C4.46758 159.533 3.6178 156.797 6.82419 155.203C14.8125 151.231 26.5411 143.963 28.3643 141.284ZM220.545 114.202L190.359 88.61L182.109 105.507L212.706 120.777C220.885 131.868 225.563 136.581 226.74 134.914C227.732 133.509 227.133 132.087 226.581 130.776C226.151 129.756 225.75 128.803 226.152 127.98C227.07 126.1 233.042 126.722 238.684 127.555C244.326 128.388 242.849 125.748 241.569 124.406C236.021 120.536 229.013 117.134 220.545 114.202Z" fill="#915b3c"/><path id="Coat Back" fill-rule="evenodd" clip-rule="evenodd" d="M127.695 5.33206L138.67 1.70266C153.557 38.8929 175.761 74.8764 212.857 105.27L203.684 121.097C171.081 101.892 140.219 86.9728 127.695 58.1547C123.492 48.4826 127.352 16.897 127.695 5.33206Z" fill="#c21b15"/><path id="Shirt" fill-rule="evenodd" clip-rule="evenodd" d="M90 110C90 110 137.157 115 164.236 110C166.473 109.587 166.826 105.842 165.788 103.301C149.636 63.7244 138.56 29.1916 138.56 1.70264C134.115 3.94386 123 2.37439 123 2.37439C103.086 30.7027 93.9325 63.2061 90 110Z" fill="#181F31"/><path id="Coat Front" fill-rule="evenodd" clip-rule="evenodd" d="M117.293 -5.36442e-07C117.807 -0.346371 118.079 -0.518677 118.079 -0.518677L118.049 -5.36442e-07H126.349C126.766 2.45256 127.376 11.543 128.267 24.798C131.504 72.9652 138.436 176.127 153.191 215.606H51.3854C53.5334 170.722 70.0818 117.047 87.2243 71.4703C74.5746 84.0558 59.8014 105.153 47.862 140.273L28.7927 135.378C48.226 51.6382 105.162 8.45168 116.21 0.743822C116.318 0.494546 116.425 0.246602 116.532 -5.36442e-07H117.293Z" fill="#ff4133"/></g></g></g></g></g></svg>